<svg id="Layer_1" data-name="Layer 1" xmlns="http://www.w3.org/2000/svg" viewBox="0 0 1080 1080"><defs><style>.cls-1{fill:#fff;}</style></defs><rect x="-79" y="-79" width="1238" height="1238"/><path class="cls-1" d="M329.62,462.37l-30.14,22-27.45-85-84.78,27.71,11.51,35.63H109.9v89.58h37.27l-27.46,85L204.51,665,216,629.43l71.86,52.51,52.37-72.5-30.15-22L382,534.87ZM221.89,611.23l-7.72-5.65L206.45,600l-1.23-.91,2.75-3.82,17.26-23.89h0l9.06-12.54,3.14,4.33L274,613.77l20.68-15.11L315,613.45l-31.1,43Zm-79.34,14.46,23.7-73.34,2.94-9.08,2.94-9.08.49-1.53,4.65,1.53,27.82,9.08L219.66,548l-3.12,4.32-36.63,50.7,20.67,15.1-7.75,24Zm-14.5-144.76h97.17v49.82l-64.29-21L153,534.19h-25Zm82-42.15,50.26-16.43,23.7,73.32,2.94,9.11,2.93,9.08.49,1.52-4.62,1.51L258,526l-14.59,4.77v-68H217.83Zm76.92,143-7.7,5.62-1.26.92-2.81-3.9L258,560.6,248.94,548l5-1.65L313.25,527l-7.89-24.44,20.22-14.77,31.11,43.06-62,45.29Z"/><path class="cls-1" d="M472.41,511.21a18.79,18.79,0,0,1-5.82,2,41.7,41.7,0,0,1-7.56.63,46.21,46.21,0,0,1-7.26-.58c-2.46-.38-4.89-.86-7.27-1.45a40.54,40.54,0,0,1-6.68-2.2,48,48,0,0,1-6.92-3.77l-7.84,17.51a45.8,45.8,0,0,0,8.3,4.18A82.1,82.1,0,0,0,449.58,532a78.51,78.51,0,0,0,9.91.64,58,58,0,0,0,15.22-1.91,37.49,37.49,0,0,0,12.17-5.62,27.47,27.47,0,0,0,8.13-9.28,26.6,26.6,0,0,0,3-12.76,26,26,0,0,0-9-20.36,37.39,37.39,0,0,0-9.57-6,81.18,81.18,0,0,0-11.41-4l-7.84-2q-7.5-1.85-10.61-4.29a7.7,7.7,0,0,1-3.12-6.37,6.2,6.2,0,0,1,1.1-3.65,9.26,9.26,0,0,1,3.17-2.73,17,17,0,0,1,4.84-1.74,29.09,29.09,0,0,1,6-.58,51.42,51.42,0,0,1,13.55,1.91,47.91,47.91,0,0,1,13.42,6.09l7.85-17.51a47.4,47.4,0,0,0-8.24-4.18c-2.66-1-5.42-1.92-8.31-2.72a65.32,65.32,0,0,0-9-1.85,67,67,0,0,0-9.16-.65,50.45,50.45,0,0,0-14.31,1.92,34.28,34.28,0,0,0-11.18,5.51,25.1,25.1,0,0,0-7.32,8.69,24.25,24.25,0,0,0-2.59,11.14q0,11.13,6.8,18.72t20.06,10.84l7.73,2q3.92,1,7.08,2a21.35,21.35,0,0,1,5.25,2.32,9.88,9.88,0,0,1,3.17,3.13,7.89,7.89,0,0,1,1.1,4.23,8.58,8.58,0,0,1-1.33,4.82A10.9,10.9,0,0,1,472.41,511.21Z"/><path class="cls-1" d="M532.48,496.13h16.95a43,43,0,0,0,15.63-2.61,32.68,32.68,0,0,0,11.23-7A28,28,0,0,0,583,476.36a32.89,32.89,0,0,0,2.2-11.89,30.66,30.66,0,0,0-2.13-11.25,27.1,27.1,0,0,0-6.53-9.68,32,32,0,0,0-11.12-6.78,45.1,45.1,0,0,0-16-2.56H512.88v97.07h19.6Zm0-43.37h13.38q9.92,0,14.36,2.95t4.43,9.11a13.26,13.26,0,0,1-1.26,6.14,9.72,9.72,0,0,1-3.69,3.89,17.94,17.94,0,0,1-6,2.09,44.84,44.84,0,0,1-7.89.64H532.48Z"/><polygon class="cls-1" points="658.97 512.71 615.62 512.71 615.62 490.92 654.7 490.92 654.7 472.13 615.62 472.13 615.62 452.76 658.74 452.76 658.74 434.2 596.01 434.2 596.01 531.27 658.97 531.27 658.97 512.71"/><path class="cls-1" d="M737.09,530.46a57.33,57.33,0,0,0,15.51-6.72L745,506.11A55.89,55.89,0,0,1,732.83,512a39.86,39.86,0,0,1-12.41,1.85A35.26,35.26,0,0,1,708.9,512a25.49,25.49,0,0,1-9.52-5.8,28.78,28.78,0,0,1-6.51-9.8,40.9,40.9,0,0,1,0-27.72,28.14,28.14,0,0,1,6.51-9.74,26,26,0,0,1,9.52-5.74,35.52,35.52,0,0,1,11.52-1.85,40.73,40.73,0,0,1,12.47,1.85A55.2,55.2,0,0,1,745,459l7.61-17.52a58.15,58.15,0,0,0-15.51-6.79,65.53,65.53,0,0,0-17.35-2.26,54.17,54.17,0,0,0-20.64,3.77,45.45,45.45,0,0,0-15.74,10.56,47.2,47.2,0,0,0-10,15.94,57.93,57.93,0,0,0,0,39.66,47.15,47.15,0,0,0,10,16,45.29,45.29,0,0,0,15.74,10.55,54,54,0,0,0,20.64,3.77A66.37,66.37,0,0,0,737.09,530.46Z"/><rect class="cls-1" x="765.4" y="434.2" width="19.6" height="97.07"/><path class="cls-1" d="M850.84,434.2H828.59l-35.74,97.07h20.64l7.84-22.15H858l8,22.15h20.63ZM827.9,490.45l11.76-33.06,11.76,33.06Z"/><polygon class="cls-1" points="958.31 512.71 915.31 512.71 915.31 434.2 895.59 434.2 895.59 531.27 958.31 531.27 958.31 512.71"/><path class="cls-1" d="M453.09,573.94a25.82,25.82,0,0,1,9.51-5.73,35.38,35.38,0,0,1,11.54-1.86,40.39,40.39,0,0,1,12.45,1.86A55.12,55.12,0,0,1,498.7,574l7.61-17.51a58.29,58.29,0,0,0-15.51-6.79,65.66,65.66,0,0,0-17.36-2.26,54.31,54.31,0,0,0-20.63,3.77,45.12,45.12,0,0,0-15.74,10.56,47.15,47.15,0,0,0-10,16,57.74,57.74,0,0,0,0,39.65,47.15,47.15,0,0,0,10,16,45.1,45.1,0,0,0,15.74,10.55,53.93,53.93,0,0,0,20.63,3.78,66.5,66.5,0,0,0,17.36-2.22,56.82,56.82,0,0,0,15.51-6.71l-7.61-17.64A54.9,54.9,0,0,1,486.53,627a39.78,39.78,0,0,1-12.39,1.86A35.38,35.38,0,0,1,462.6,627a25.2,25.2,0,0,1-9.51-5.8,28.56,28.56,0,0,1-6.52-9.8,41.06,41.06,0,0,1,0-27.72A28.11,28.11,0,0,1,453.09,573.94Z"/><path class="cls-1" d="M543.79,549.19,508,646.25h20.64l7.84-22.14h36.67l8,22.14h20.63L566,549.19Zm-.7,56.24,11.76-33,11.76,33Z"/><path class="cls-1" d="M672.18,602a26.1,26.1,0,0,0,6.23-6.67,27.85,27.85,0,0,0,3.45-7.83,32.14,32.14,0,0,0,1.1-8.41,31.51,31.51,0,0,0-2-11.07,25.82,25.82,0,0,0-6.4-9.63,31.56,31.56,0,0,0-11.13-6.72,46.44,46.44,0,0,0-16.08-2.49H610.77v97.06h19.61V609.14h14.18l22.83,37.11h22.14l-24.79-40.12A25.24,25.24,0,0,0,672.18,602Zm-11-16.53a9.85,9.85,0,0,1-3.57,3.71,15.82,15.82,0,0,1-5.89,1.92,57.28,57.28,0,0,1-8.07.53H630.38v-23.9h13.26q9.92,0,14.35,2.73t4.44,9A12.47,12.47,0,0,1,661.17,585.48Z"/><path class="cls-1" d="M766.91,561.24a51,51,0,0,0-17.71-9,77.54,77.54,0,0,0-22.08-3H700.94v97.06h26.87a73.24,73.24,0,0,0,22.09-3.18,49.66,49.66,0,0,0,17.47-9.52,43.46,43.46,0,0,0,11.47-15.48,50.85,50.85,0,0,0,4.09-20.88,48.36,48.36,0,0,0-4.27-20.87A42,42,0,0,0,766.91,561.24Zm-7,50.22a23.3,23.3,0,0,1-7,9.39,28.59,28.59,0,0,1-11.18,5.22,62.57,62.57,0,0,1-14.94,1.62h-6.23v-60h6.81a58,58,0,0,1,14.48,1.68,29.63,29.63,0,0,1,11,5.22,24.07,24.07,0,0,1,7,9.11,32.11,32.11,0,0,1,2.53,13.44A36.38,36.38,0,0,1,759.92,611.46Z"/><path class="cls-1" d="M854.07,597.71a37,37,0,0,0-9.57-6,81.18,81.18,0,0,0-11.41-4l-7.84-2q-7.5-1.85-10.61-4.29a7.73,7.73,0,0,1-3.12-6.37,6.2,6.2,0,0,1,1.1-3.65,9.22,9.22,0,0,1,3.18-2.73,16.83,16.83,0,0,1,4.84-1.74,29.55,29.55,0,0,1,6-.58,51.31,51.31,0,0,1,13.55,1.91,47.87,47.87,0,0,1,13.44,6.09l7.84-17.52a48.46,48.46,0,0,0-8.25-4.17c-2.65-1-5.42-1.92-8.3-2.72a65.77,65.77,0,0,0-9-1.85,66.74,66.74,0,0,0-9.17-.65,50.36,50.36,0,0,0-14.29,1.92,34.08,34.08,0,0,0-11.18,5.51,25,25,0,0,0-7.33,8.7,24.31,24.31,0,0,0-2.59,11.13q0,11.14,6.8,18.73t20.06,10.83l7.73,2q3.91,1,7.09,2a21.49,21.49,0,0,1,5.25,2.32,10,10,0,0,1,3.17,3.13,8,8,0,0,1,1.1,4.23,8.67,8.67,0,0,1-1.33,4.82,10.94,10.94,0,0,1-3.75,3.42,18.5,18.5,0,0,1-5.83,2,41.54,41.54,0,0,1-7.55.64,47.64,47.64,0,0,1-7.26-.58q-3.69-.59-7.26-1.45a42.31,42.31,0,0,1-6.69-2.21,47,47,0,0,1-6.92-3.77l-7.85,17.52a47.14,47.14,0,0,0,8.3,4.18,83.32,83.32,0,0,0,8.66,2.65,81.84,81.84,0,0,0,9.57,1.81,78.55,78.55,0,0,0,9.92.64,57.73,57.73,0,0,0,15.22-1.92,37.43,37.43,0,0,0,12.16-5.62,27.36,27.36,0,0,0,8.13-9.28,28.9,28.9,0,0,0,.57-24.42A27.15,27.15,0,0,0,854.07,597.71Z"/><path class="cls-1" d="M881.19,641.64a4.11,4.11,0,0,0-1.11-.55,4.54,4.54,0,0,0-1.32-.2,4.59,4.59,0,0,0-1.32.2,4.11,4.11,0,0,0-1.11.55,3.24,3.24,0,0,0-.8.85,2.2,2.2,0,0,0,0,2.25,3.28,3.28,0,0,0,.81.85,4,4,0,0,0,1.12.52,5.09,5.09,0,0,0,1.3.17,5,5,0,0,0,1.3-.17,3.72,3.72,0,0,0,1.12-.52,3.28,3.28,0,0,0,.81-.85,2.2,2.2,0,0,0,0-2.25A3.24,3.24,0,0,0,881.19,641.64Z"/><polygon class="cls-1" points="904.05 639.91 894.76 621.85 886.56 621.85 886.56 645.96 892.23 645.96 892.23 627.9 901.52 645.96 909.69 645.96 909.69 621.85 904.05 621.85 904.05 639.91"/><polygon class="cls-1" points="921.3 635.93 932.75 635.93 932.75 631.26 921.3 631.26 921.3 626.46 933.93 626.46 933.93 621.85 915.57 621.85 915.57 645.96 934.01 645.96 934.01 641.36 921.3 641.36 921.3 635.93"/><polygon class="cls-1" points="936 621.85 936 626.46 945.11 626.46 945.11 645.96 950.89 645.96 950.89 626.46 960 626.46 960 621.85 936 621.85"/></svg>