<svg id="Layer_1" data-name="Layer 1" xmlns="http://www.w3.org/2000/svg" viewBox="0 0 1080 1080"><path d="M978.91,533l-57.56-79.24-35.64,25.88L853.66,381,760.5,411.24l13.61,41.89H670.42v98h44l-32,98.62L775.56,680l13.62-41.89L873.07,699l57.58-79.24L895,593.89ZM794.33,622.23l-6.74-4.89-6.73-4.88-6.36-4.63,14.23-19.59,15-20.69,7.91-10.91,2.73,3.75,43.79,60.25,23.33-16.95,27,19.6-38.95,53.62Zm-92,17.3,28.74-88.45,2.57-7.93,2.58-7.92,2.42-7.47,23,7.47L786,543.15l12.84,4.17-2.73,3.76-43.78,60.25,23.35,17L765.41,660ZM686.25,469H803.78v63.29l-75.26-24.44-8.9,27.42H686.25Zm157.24-68,28.75,88.45,2.58,7.92,2.57,7.93,2.43,7.47-23,7.47h0l-24.37,7.93-12.81,4.15V453.13H790.77l-10.31-31.72ZM874.8,589l-6.73,4.89-6.36,4.61-14.23-19.58-15.06-20.73-7.9-10.89,4.41-1.44,70.84-23-8.92-27.44,27-19.6,39,53.61-75.26,54.67Z"/><path d="M127.28,510.05a13.09,13.09,0,0,0,16,0q3.53-2.73,3.52-7.95a9.69,9.69,0,0,0-3.33-7.64,13,13,0,0,0-16.38,0,9.69,9.69,0,0,0-3.33,7.64Q123.76,507.32,127.28,510.05Z"/><path d="M221.64,524.05h66.95V452.62H268.45v51.3H214.12v-51.3H189.61a52.2,52.2,0,0,0-13.46,1.64,29.5,29.5,0,0,0-10.68,5.15,26.58,26.58,0,0,0-8.42,11.35,43.42,43.42,0,0,0-2.61,15.69v32.63H132.37a44.31,44.31,0,0,1-10.79-1.27,52,52,0,0,1-12.38-5.4l-8.11,17.83c3.64,2,6.66,3.56,9.09,4.61a47,47,0,0,0,7.7,2.55,61,61,0,0,0,8.8,1.39q4.71.44,11.15.43h36.75V485.37a15.57,15.57,0,0,1,1.1-5.71,10.07,10.07,0,0,1,2.84-4.24,10.37,10.37,0,0,1,4.07-2.05,20.6,20.6,0,0,1,5.2-.62H194v51.3Z"/><path d="M127.28,484.34a13.09,13.09,0,0,0,16,0c2.35-1.82,3.52-4.48,3.52-7.95a9.68,9.68,0,0,0-3.33-7.64,13,13,0,0,0-16.38,0,9.68,9.68,0,0,0-3.33,7.64C123.76,479.86,124.93,482.52,127.28,484.34Z"/><path d="M283.25,442.79a12.61,12.61,0,0,0,15.52,0,9.28,9.28,0,0,0,3.27-7.64,9.42,9.42,0,0,0-3.14-7.39,12.45,12.45,0,0,0-15.71,0,10.31,10.31,0,0,0,.06,15Z"/><path d="M256.93,442.79a12.63,12.63,0,0,0,15.53,0,10.33,10.33,0,0,0,.06-15,12.37,12.37,0,0,0-15.65,0,9.32,9.32,0,0,0-3.21,7.39C253.66,438.47,254.74,441,256.93,442.79Z"/><path d="M396.59,442.79a12.63,12.63,0,0,0,15.53,0,10.38,10.38,0,0,0,.1-15,12.42,12.42,0,0,0-15.69,0,10.29,10.29,0,0,0,.06,15Z"/><path d="M370.26,442.79a12.63,12.63,0,0,0,15.53,0c2.19-1.77,3.27-4.32,3.27-7.64a9.32,9.32,0,0,0-3.21-7.39,12.35,12.35,0,0,0-15.64,0,10.32,10.32,0,0,0,.05,15Z"/><path d="M348.92,524.05h68.77V452.62H396.1A58.37,58.37,0,0,0,379,455a38.07,38.07,0,0,0-13.4,7,32.21,32.21,0,0,0-8.74,11.28,34.94,34.94,0,0,0-3.08,15,28.89,28.89,0,0,0,1.63,10,24.47,24.47,0,0,0,2.61,5.69H333.41V429.76H313.26v94.29h35.66Zm26.49-42.44a14.62,14.62,0,0,1,4-4.85,18.18,18.18,0,0,1,5.82-3,22.84,22.84,0,0,1,6.72-1h5.59v31.17H382a19.61,19.61,0,0,1-5.84-6.43,18.14,18.14,0,0,1-2.3-9.21A14.35,14.35,0,0,1,375.41,481.61Z"/><path d="M611,531.58a12.93,12.93,0,0,0-16.37,0,9.64,9.64,0,0,0-3.34,7.64c0,3.47,1.18,6.13,3.52,7.93a13.06,13.06,0,0,0,16,0c2.34-1.8,3.52-4.46,3.52-7.93A9.61,9.61,0,0,0,611,531.58Z"/><path d="M612.89,452.62H592.76v51.3H570.08V493.74a59.24,59.24,0,0,0-1.64-14.37,24.42,24.42,0,0,0-5.88-11.1,28.28,28.28,0,0,0-11.34-7.34,45.72,45.72,0,0,0-15-2.24H500.83V429.76H480.69v74.16H458.86V429.76H438.74v94.29H612.89ZM550,503.92H500.83V478.69h37.11a12.24,12.24,0,0,1,5.33,1.16,9.65,9.65,0,0,1,3.76,3,12,12,0,0,1,2.18,4.3A20.78,20.78,0,0,1,550,493Z"/><path d="M223.1,551.21a11.47,11.47,0,0,0-7.82,2.8,10.33,10.33,0,0,0,.06,15,12.63,12.63,0,0,0,15.53,0,10.33,10.33,0,0,0,.06-15A11.52,11.52,0,0,0,223.1,551.21Z"/><path d="M249.42,551.21a11.52,11.52,0,0,0-7.83,2.8,10.33,10.33,0,0,0,.06,15,12.63,12.63,0,0,0,15.53,0,10.4,10.4,0,0,0,.12-15A11.43,11.43,0,0,0,249.42,551.21Z"/><path d="M338.68,561.15a1.57,1.57,0,0,1-1-.35,3.78,3.78,0,0,1-.79-1.82l-1.57-8-9,1.82,1.57,8.36c.65,3.24,1.94,5.54,3.89,6.92a10.84,10.84,0,0,0,6.42,2.06,9.12,9.12,0,0,0,6.13-2,9.87,9.87,0,0,0,2.61-2.73,4.13,4.13,0,0,0,1.45,1.46,6.22,6.22,0,0,0,3.16.6,11.23,11.23,0,0,0,8.24-3q3-3,3-8.43a18.19,18.19,0,0,0-.24-2.67l-.49-2.9c-.23-1-.6-2.75-1.08-5.1l-9.46,2.18a33.79,33.79,0,0,1,1.93,5.76,17.35,17.35,0,0,1,.37,3.35c0,1.28-.6,1.92-1.82,1.92-.9,0-1.45-.55-1.7-1.69l-1.45-8.12-9.23,1.33c.42,2.27.69,3.92.86,5a18.19,18.19,0,0,1,.24,2.67,4.82,4.82,0,0,1-.54,2.67A1.78,1.78,0,0,1,338.68,561.15Z"/><path d="M382.1,599.24a28.33,28.33,0,0,0-11.35-7.33,45.63,45.63,0,0,0-15-2.25H320.36v-6.07H300.24v51.3H261.18V577.53H241.05v6.06h-.85a57.21,57.21,0,0,0-18.07,2.67,39.86,39.86,0,0,0-13.58,7.46,31.66,31.66,0,0,0-8.49,11.34,34.87,34.87,0,0,0-2.92,14.31,35.59,35.59,0,0,0,3.28,15.71,31.59,31.59,0,0,0,9,11.22A37.65,37.65,0,0,0,223,652.9,65.19,65.19,0,0,0,240.2,655H389.61V624.71A59.81,59.81,0,0,0,388,610.34,24.52,24.52,0,0,0,382.1,599.24Zm-141,35.65h-5.83a22.39,22.39,0,0,1-6.79-1,18.16,18.16,0,0,1-5.76-3,14.29,14.29,0,0,1-3.93-4.79,14.53,14.53,0,0,1-1.47-6.74,13.47,13.47,0,0,1,1.59-6.61,15,15,0,0,1,4.24-4.85,20.59,20.59,0,0,1,6.07-3.1,22.6,22.6,0,0,1,6.9-1.08h5Zm128.44,0H320.36V609.67h37.12a12.38,12.38,0,0,1,5.33,1.15,9.72,9.72,0,0,1,3.76,3,12.43,12.43,0,0,1,2.18,4.31,20.78,20.78,0,0,1,.74,5.88Z"/><path d="M488.7,574.25a12.74,12.74,0,0,0,8-2.73q3.51-2.73,3.51-7.93a9.63,9.63,0,0,0-3.33-7.64,12.93,12.93,0,0,0-16.37,0,9.61,9.61,0,0,0-3.34,7.64c0,3.47,1.18,6.11,3.52,7.93A12.69,12.69,0,0,0,488.7,574.25Z"/><path d="M548.55,634.89H526.29q.38-2.05.79-6.11a78.26,78.26,0,0,0,.43-8.32,42.51,42.51,0,0,0-3.15-16.91,39.39,39.39,0,0,0-8.25-12.44,31.39,31.39,0,0,0-11-7.27,38.14,38.14,0,0,0-14.18-2.55,48.5,48.5,0,0,0-14.62,2.12,73.48,73.48,0,0,0-14.14,6.37l8.49,17.7a39.39,39.39,0,0,1,9.77-5,31,31,0,0,1,8.43-1.09c5.66,0,10.06,1.42,13.23,4.24a13.74,13.74,0,0,1,4.18,6.19,22.68,22.68,0,0,1,1.26,7.28,74.09,74.09,0,0,1-.54,8.43,72.49,72.49,0,0,1-1.15,7.33H428.55V561.64H408.41V655H568.67V581.78h7.89V561.64h-28Z"/><rect x="592.76" y="561.64" width="20.13" height="93.39"/><path d="M129.31,629.27a4.59,4.59,0,0,0,2.67-.77,2.72,2.72,0,0,0,.05-4.38,5,5,0,0,0-5.4,0,2.72,2.72,0,0,0,0,4.38A4.66,4.66,0,0,0,129.31,629.27Z"/><path d="M118.79,629.27a4.61,4.61,0,0,0,2.67-.77,2.56,2.56,0,0,0,1.11-2.23,2.51,2.51,0,0,0-1.1-2.15,4.35,4.35,0,0,0-2.68-.8,4.43,4.43,0,0,0-2.7.8,2.74,2.74,0,0,0,0,4.38A4.59,4.59,0,0,0,118.79,629.27Z"/><path d="M160.61,648.21H141.69V630.6H134.9v17.61H121.32a25,25,0,0,1-4.09-.32,7.8,7.8,0,0,1-3.15-1.25,4.51,4.51,0,0,1-1.57-2.15,9.6,9.6,0,0,1-.47-3.18v-7.17h-6.79V642a16,16,0,0,0,.73,4.86,7.75,7.75,0,0,0,2.51,3.76,13.8,13.8,0,0,0,5.11,2.63,19.17,19.17,0,0,0,3.28.6,39,39,0,0,0,4,.19h46.59V630.6h-6.81Z"/><path d="M166.71,621.71a5.17,5.17,0,0,0-5.68,0,2.81,2.81,0,0,0,.05,4.56,5.27,5.27,0,0,0,5.58,0,2.81,2.81,0,0,0,.05-4.56Z"/><path d="M184.77,648.74a4.3,4.3,0,0,0-1.41-.68,5.52,5.52,0,0,0-1.68-.27,5.41,5.41,0,0,0-1.67.27,4.45,4.45,0,0,0-1.42.68,3.67,3.67,0,0,0-1,1.06,2.57,2.57,0,0,0-.39,1.42,2.45,2.45,0,0,0,.39,1.37,3.48,3.48,0,0,0,1,1,5.14,5.14,0,0,0,1.42.65,6.07,6.07,0,0,0,1.67.23,6.2,6.2,0,0,0,1.68-.23,4.94,4.94,0,0,0,1.41-.65,3.48,3.48,0,0,0,1-1,2.45,2.45,0,0,0,.39-1.37,2.57,2.57,0,0,0-.39-1.42A3.67,3.67,0,0,0,184.77,648.74Z"/></svg>