<svg id="Layer_1" data-name="Layer 1" xmlns="http://www.w3.org/2000/svg" viewBox="0 0 1080 1080"><defs><style>.cls-1{fill:#fff;}</style></defs><rect class="cls-1" x="-78.5" y="-94.5" width="1237" height="1237"/><path d="M1158-94V1142H-78V-94H1158m1-1H-79V1143H1159V-95Z"/><path d="M862.35,525.17l-120-165.24-74.69,54.26L600.5,207.69,406.28,270.78l28.54,87.82H217.65V562.83H310L242.88,769.36l194.21,63.1,28.54-87.78L641.32,872.31l120-165.25-74.7-54.26ZM476.15,712.25l-13.76-10-13.8-10-14-10.2,31.35-43.13,30.81-42.41,16.21-22.31,5.58,7.68,91.82,126.36,48.75-35.42,57,41.4L634.15,827ZM283.7,748.54,344,562.83l5.26-16.22,5.26-16.18,5.37-16.5,50.77,16.5,49.8,16.18,26.23,8.54-5.59,7.68-91.81,126.4,48.75,35.42-21.76,67ZM250.05,391H496.73V524.31l-157.61-51.2-18.63,57.32H250.05ZM579.71,248.52l60.35,185.71,5.26,16.21,5.26,16.22L656,483.12l-50.7,16.47-49.9,16.21-26.2,8.51V358.6H468.87l-21.76-67Zm65.61,394.26-13.76,10-14,10.2-31.39-43.21-30.81-42.37-16.17-22.27,9-2.95,148.6-48.29-18.63-57.29,57-41.4L817.09,518l-158,114.77Z"/></svg>